<svg version="1.2" xmlns="http://www.w3.org/2000/svg" viewBox="0 0 33 33" width="33px"><path d="m32.9 16.7c0 7.2-4.7 13.3-11.1 15.5-0.9 0.2-1.2-0.3-1.2-0.8 0-0.5 0.1-2.3 0.1-4.5 0-1.5-0.6-2.5-1.1-3 3.6-0.4 7.4-1.7 7.4-8 0-1.8-0.6-3.2-1.7-4.4 0.2-0.4 0.8-2-0.1-4.3q-1.4-0.4-4.5 1.7c-1.3-0.4-2.7-0.6-4.1-0.6-1.4 0-2.8 0.2-4.1 0.6q-3.1-2.1-4.4-1.7c-0.9 2.3-0.4 3.9-0.2 4.3-1 1.2-1.7 2.6-1.7 4.4 0 6.2 3.8 7.6 7.4 8-0.4 0.5-0.9 1.2-1 2.2-0.9 0.4-3.3 1.2-4.7-1.3q-0.9-1.6-2.5-1.7-1.6 0-0.1 1 1 0.5 1.8 2.4 0.9 3.1 5.5 2.1c0 1.4 0 2.4 0 2.8 0 0.4-0.3 1-1.1 0.8-6.5-2.2-11.2-8.3-11.2-15.5 0-9 7.3-16.2 16.3-16.2 9 0 16.3 7.2 16.3 16.2z"/></svg>